# xmcd
#
# Track frame offsets: 
#        150
#        14918
#        28450
#        43738
#        56825
#        71655
#        86962
#        107851
#        121788
#        139192
#        153093
#
# Disc length: 2316 seconds
#
# Revision: 0
# Processed by: cddbd v1.5.2PL0 Copyright (c) Steve Scherf et al.
# Submitted via: ExactAudioCopyFreeDBPlugin 1.0
#
DISCID=a3090a0b
DTITLE=Tommy Ridgley - How Long
DYEAR=1992
DGENRE=Blues
TTITLE0=How Long
TTITLE1=Bad Luck
TTITLE2=You Are The Lady
TTITLE3=The Way I Feel About You
TTITLE4=About My Past
TTITLE5=I Love You Yes I Do
TTITLE6=I'm Gonna Cross That River
TTITLE7=You Mean Everything To Me
TTITLE8=All Wrapped Up In You
TTITLE9=I Don't Want Nobody Else
TTITLE10=Op Poo Pa Do
EXTD=
EXTT0=
EXTT1=
EXTT2=
EXTT3=
EXTT4=
EXTT5=
EXTT6=
EXTT7=
EXTT8=
EXTT9=
EXTT10=
PLAYORDER=
